# xmcd CD database file
#
# Track frame offsets:
#	150
#	12624
#	25608
#	44231
#	66716
#	81650
#	94733
#	110320
#	120311
#	136819
#	154177
#	167243
#	185586
#	197566
#	216919
#
# Disc length: 3092 seconds
#
# Revision: 0
# Processed by: cddbd v1.5.2PL0 Copyright (c) Steve Scherf et al.
# Submitted via: CDex 1.70beta2
#
DISCID=db0c120f
DTITLE=Guy Cabay - The Biesse Tof
DYEAR=1999
DGENRE=Jazz
TTITLE0=Bossa Colas
TTITLE1=Les Cantias
TTITLE2=Li Matoufet
TTITLE3=Paroles d'Amour
TTITLE4=Al Copete
TTITLE5=Li Robaleu
TTITLE6=A mVwezene
TTITLE7=Dji m Distourne di M Voye
TTITLE8=Amon Laca (pove tiesse)
TTITLE9=Obzekes
TTITLE10=Li Sabat D Sinte Mere L Oto
TTITLE11=Dji M Dimande
TTITLE12=Pax Pollinibus Bonae Voluntatis
TTITLE13=Tot-a-fet Rote Cou-D Zeur Cou-D Zos
TTITLE14=Amon Laca (original mix 1978)
EXTD=YEAR: 1999
EXTT0=
EXTT1=
EXTT2=
EXTT3=
EXTT4=
EXTT5=
EXTT6=
EXTT7=
EXTT8=
EXTT9=
EXTT10=
EXTT11=
EXTT12=
EXTT13=
EXTT14=
PLAYORDER=
